{
	"asset":{
		"generator":"Khronos glTF Blender I/O v4.1.63",
		"version":"2.0"
	},
	"scene":0,
	"scenes":[
		{
			"extras":{
				"mcprep_skins_list":[
					{
						"label":"alex.png skin",
						"description":"alex.png skin",
						"name":"alex.png"
					},
					{
						"label":"redshirt.png skin",
						"description":"redshirt.png skin",
						"name":"redshirt.png"
					},
					{
						"label":"steve.png skin",
						"description":"steve.png skin",
						"name":"steve.png"
					},
					{
						"label":"template-skin.png skin",
						"description":"template-skin.png skin",
						"name":"template-skin.png"
					},
					{
						"label":"theduckcow.png skin",
						"description":"theduckcow.png skin",
						"name":"theduckcow.png"
					},
					{
						"label":"thekindkitten.png skin",
						"description":"thekindkitten.png skin",
						"name":"thekindkitten.png"
					}
				]
			},
			"name":"Scene",
			"nodes":[
				0,
				1,
				2
			]
		}
	],
	"nodes":[
		{
			"mesh":0,
			"name":"Cube",
			"scale":[
				1,
				1,
				0.44129014015197754
			]
		},
		{
			"name":"Empty",
			"rotation":[
				0,
				-0.7071068286895752,
				0.7071068286895752,
				3.090862321641907e-08
			],
			"translation":[
				0.5234270095825195,
				0,
				-2.4625306129455566
			]
		},
		{
			"mesh":1,
			"name":"Cube.001",
			"scale":[
				1,
				1,
				0.44129014015197754
			]
		}
	],
	"materials":[
		{
			"doubleSided":true,
			"name":"Material",
			"pbrMetallicRoughness":{
				"baseColorFactor":[
					0.800000011920929,
					0.800000011920929,
					0.800000011920929,
					1
				],
				"metallicFactor":0,
				"roughnessFactor":0.5
			}
		}
	],
	"meshes":[
		{
			"name":"Cube",
			"primitives":[
				{
					"attributes":{
						"POSITION":0,
						"NORMAL":1,
						"TEXCOORD_0":2
					},
					"indices":3,
					"material":0
				}
			]
		},
		{
			"name":"Cube.001",
			"primitives":[
				{
					"attributes":{
						"POSITION":4,
						"NORMAL":5,
						"TEXCOORD_0":6,
						"TANGENT":7
					},
					"indices":8,
					"material":0
				}
			]
		}
	],
	"accessors":[
		{
			"bufferView":0,
			"componentType":5126,
			"count":904,
			"max":[
				2.9284510612487793,
				0.7783492207527161,
				0.7620115876197815
			],
			"min":[
				-1.8479640483856201,
				-0.8820300698280334,
				-0.7620115280151367
			],
			"type":"VEC3"
		},
		{
			"bufferView":1,
			"componentType":5126,
			"count":904,
			"type":"VEC3"
		},
		{
			"bufferView":2,
			"componentType":5126,
			"count":904,
			"type":"VEC2"
		},
		{
			"bufferView":3,
			"componentType":5123,
			"count":1848,
			"type":"SCALAR"
		},
		{
			"bufferView":4,
			"componentType":5126,
			"count":40,
			"max":[
				0.5108741521835327,
				-0.1050904393196106,
				0.5541538000106812
			],
			"min":[
				-0.027283817529678345,
				-0.8820300698280334,
				-0.5541537404060364
			],
			"type":"VEC3"
		},
		{
			"bufferView":5,
			"componentType":5126,
			"count":40,
			"type":"VEC3"
		},
		{
			"bufferView":6,
			"componentType":5126,
			"count":40,
			"type":"VEC2"
		},
		{
			"bufferView":7,
			"componentType":5126,
			"count":40,
			"type":"VEC4"
		},
		{
			"bufferView":8,
			"componentType":5123,
			"count":72,
			"type":"SCALAR"
		}
	],
	"bufferViews":[
		{
			"buffer":0,
			"byteLength":10848,
			"byteOffset":0,
			"target":34962
		},
		{
			"buffer":0,
			"byteLength":10848,
			"byteOffset":10848,
			"target":34962
		},
		{
			"buffer":0,
			"byteLength":7232,
			"byteOffset":21696,
			"target":34962
		},
		{
			"buffer":0,
			"byteLength":3696,
			"byteOffset":28928,
			"target":34963
		},
		{
			"buffer":0,
			"byteLength":480,
			"byteOffset":32624,
			"target":34962
		},
		{
			"buffer":0,
			"byteLength":480,
			"byteOffset":33104,
			"target":34962
		},
		{
			"buffer":0,
			"byteLength":320,
			"byteOffset":33584,
			"target":34962
		},
		{
			"buffer":0,
			"byteLength":640,
			"byteOffset":33904,
			"target":34962
		},
		{
			"buffer":0,
			"byteLength":144,
			"byteOffset":34544,
			"target":34963
		}
	],
	"buffers":[
		{
			"byteLength":34688,
			"uri":"M4A1-ff59d93bffff5937c8287ba7858bab47.bin"
		}
	]
}
