{
	"asset":{
		"generator":"Khronos glTF Blender I/O v4.1.63",
		"version":"2.0"
	},
	"scene":0,
	"scenes":[
		{
			"extras":{
				"mcprep_skins_list":[
					{
						"label":"alex.png skin",
						"description":"alex.png skin",
						"name":"alex.png"
					},
					{
						"label":"redshirt.png skin",
						"description":"redshirt.png skin",
						"name":"redshirt.png"
					},
					{
						"label":"steve.png skin",
						"description":"steve.png skin",
						"name":"steve.png"
					},
					{
						"label":"template-skin.png skin",
						"description":"template-skin.png skin",
						"name":"template-skin.png"
					},
					{
						"label":"theduckcow.png skin",
						"description":"theduckcow.png skin",
						"name":"theduckcow.png"
					},
					{
						"label":"thekindkitten.png skin",
						"description":"thekindkitten.png skin",
						"name":"thekindkitten.png"
					}
				]
			},
			"name":"Scene",
			"nodes":[
				0
			]
		}
	],
	"nodes":[
		{
			"mesh":0,
			"name":"Plane"
		}
	],
	"meshes":[
		{
			"name":"Plane",
			"primitives":[
				{
					"attributes":{
						"POSITION":0,
						"NORMAL":1,
						"TEXCOORD_0":2,
						"TANGENT":3
					},
					"indices":4
				}
			]
		}
	],
	"accessors":[
		{
			"bufferView":0,
			"componentType":5126,
			"count":132,
			"max":[
				13,
				7,
				12
			],
			"min":[
				-16,
				0,
				-12
			],
			"type":"VEC3"
		},
		{
			"bufferView":1,
			"componentType":5126,
			"count":132,
			"type":"VEC3"
		},
		{
			"bufferView":2,
			"componentType":5126,
			"count":132,
			"type":"VEC2"
		},
		{
			"bufferView":3,
			"componentType":5126,
			"count":132,
			"type":"VEC4"
		},
		{
			"bufferView":4,
			"componentType":5123,
			"count":246,
			"type":"SCALAR"
		}
	],
	"bufferViews":[
		{
			"buffer":0,
			"byteLength":1584,
			"byteOffset":0,
			"target":34962
		},
		{
			"buffer":0,
			"byteLength":1584,
			"byteOffset":1584,
			"target":34962
		},
		{
			"buffer":0,
			"byteLength":1056,
			"byteOffset":3168,
			"target":34962
		},
		{
			"buffer":0,
			"byteLength":2112,
			"byteOffset":4224,
			"target":34962
		},
		{
			"buffer":0,
			"byteLength":492,
			"byteOffset":6336,
			"target":34963
		}
	],
	"buffers":[
		{
			"byteLength":6828,
			"uri":"raw-6195c3ce1ce403caf24201099569357d.bin"
		}
	]
}
