# Blender 4.1.1
# www.blender.org
mtllib map.mtl
o layout
v -2.000000 0.000000 10.000000
v 3.195867 0.000000 10.000000
v -2.000000 0.000000 -10.000000
v 3.195867 0.000000 -10.000000
v -16.000000 0.000000 12.000000
v -4.000000 0.000000 12.000000
v -16.000000 0.000000 0.000000
v -4.000000 0.000000 0.000000
v 14.195867 0.000000 -12.000000
v 5.195867 0.000000 -12.000000
v 14.195867 0.000000 0.000000
v 5.195867 0.000000 0.000000
v -2.000000 0.000000 -8.000000
v -2.000000 0.000000 -5.186089
v 3.195867 0.000000 -5.186089
v 3.195867 0.000000 -8.000000
v 5.292703 0.000000 -5.186089
v 5.292703 0.000000 -8.000000
v 3.195867 0.000000 -8.000000
v 3.195867 0.000000 -5.186089
v -2.000000 0.000000 4.997667
v -2.000000 0.000000 7.975445
v 3.195867 0.000000 7.975445
v 3.195867 0.000000 4.997666
v -3.000000 0.000000 5.500000
v -5.000000 0.000000 5.500000
v -16.000000 0.000000 5.000000
v -16.000000 0.000000 8.000000
v -4.000000 0.000000 8.000000
v -4.000000 0.000000 5.000000
v 14.195867 0.000000 -8.000000
v 14.195867 0.000000 -5.202755
v 5.195867 0.000000 -5.202755
v 5.195867 0.000000 -8.000000
v -2.000000 7.000000 10.000000
v 3.195867 7.000000 10.000000
v -2.000000 7.000000 -10.000000
v 3.195867 7.000000 -10.000000
v -16.000000 7.000000 12.000000
v -4.000000 7.000000 12.000000
v -16.000000 7.000000 0.000000
v -4.000000 7.000000 0.000000
v 14.195867 7.000000 -12.000000
v 5.195867 7.000000 -12.000000
v 14.195867 7.000000 0.000000
v 5.195867 7.000000 0.000000
v -2.000000 7.000000 -8.000000
v -2.000000 7.000000 -5.186089
v 3.195867 7.000000 -5.186089
v 3.195867 7.000000 -8.000000
v 5.292703 7.000000 -5.186089
v 5.292703 7.000000 -8.000000
v 3.195867 7.000000 -8.000000
v 3.195867 7.000000 -5.186089
v -2.000000 7.000000 4.997667
v -2.000000 7.000000 7.975445
v 3.195867 7.000000 7.975445
v 3.195867 7.000000 4.997666
v -3.000000 0.000000 7.500000
v -5.000000 0.000000 7.500000
v -16.000000 7.000000 5.000000
v -16.000000 7.000000 8.000000
v -4.000000 7.000000 8.000000
v -4.000000 7.000000 5.000000
v 14.195867 7.000000 -8.000000
v 14.195867 7.000000 -5.202755
v 5.195867 7.000000 -5.202755
v 5.195867 7.000000 -8.000000
vn -0.0000 1.0000 -0.0000
vn -1.0000 -0.0000 -0.0000
vn -0.0123 -0.0000 -0.9999
vn -0.0000 -0.0000 1.0000
vn 0.0012 -0.0000 1.0000
vn 1.0000 -0.0000 -0.0000
vn -0.0000 -0.0000 -1.0000
vt 0.000000 0.900000
vt 1.000000 0.900000
vt 1.000000 1.000000
vt 0.000000 1.000000
vt 0.000000 0.666667
vt 1.000000 0.666667
vt 0.000000 0.666667
vt 1.000000 0.666667
vt 0.000000 0.260667
vt 1.000000 0.260667
vt 1.000000 0.566667
vt 0.000000 0.566667
vt 0.000000 0.000000
vt 1.000000 0.000000
vt 1.000000 0.071778
vt 0.000000 0.071778
vt 1.000000 0.333333
vt 0.000000 0.333333
vt 1.000000 0.333333
vt 0.000000 0.333333
s 0
usemtl Material.001
f 13/1/1 16/2/1 4/3/1 3/4/1
f 27/5/1 30/6/1 8/3/1 7/4/1
f 32/7/1 33/8/1 12/3/1 11/4/1
f 21/9/1 24/10/1 15/11/1 14/12/1
f 14/12/1 15/11/1 16/2/1 13/1/1
f 19/2/1 20/11/1 17/11/1 18/2/1
f 1/13/1 2/14/1 23/15/1 22/16/1
f 22/16/1 23/15/1 24/10/1 21/9/1
f 21/9/1 30/6/1 29/17/1 22/16/1
f 5/13/1 6/14/1 29/17/1 28/18/1
f 28/18/1 29/17/1 30/6/1 27/5/1
f 9/13/1 10/14/1 34/19/1 31/20/1
f 31/20/1 34/19/1 33/8/1 32/7/1
f 4/3/2 16/2/2 50/2/2 38/3/2
f 29/17/3 63/17/3 56/16/3 22/16/3
f 3/4/4 4/3/4 38/3/4 37/4/4
f 64/6/5 30/6/5 21/9/5 55/9/5
f 5/13/6 28/18/6 62/18/6 39/13/6
f 27/5/6 7/4/6 41/4/6 61/5/6
f 6/14/7 5/13/7 39/13/7 40/14/7
f 28/18/6 27/5/6 61/5/6 62/18/6
f 19/2/4 18/2/4 52/2/4 53/2/4
f 8/3/2 30/6/2 64/6/2 42/3/2
f 29/17/2 6/14/2 40/14/2 63/17/2
f 17/11/7 20/11/7 54/11/7 51/11/7
f 7/4/4 8/3/4 42/3/4 41/4/4
f 32/7/2 11/4/2 45/4/2 66/7/2
f 21/9/6 14/12/6 48/12/6 55/9/6
f 10/14/4 9/13/4 43/13/4 44/14/4
f 34/19/6 10/14/6 44/14/6 68/19/6
f 9/13/2 31/20/2 65/20/2 43/13/2
f 23/15/2 2/14/2 36/14/2 57/15/2
f 11/4/7 12/3/7 46/3/7 45/4/7
f 31/20/2 32/7/2 66/7/2 65/20/2
f 24/10/2 23/15/2 57/15/2 58/10/2
f 13/1/6 3/4/6 37/4/6 47/1/6
f 12/3/6 33/8/6 67/8/6 46/3/6
f 14/12/6 13/1/6 47/1/6 48/12/6
f 1/13/6 22/16/6 56/16/6 35/13/6
f 15/11/2 24/10/2 58/10/2 49/11/2
f 2/14/7 1/13/7 35/13/7 36/14/7
f 60/13/1 59/14/1 25/3/1 26/4/1
o Plane.001
v -7.451387 4.860200 11.841052
v -7.451387 2.140092 11.841052
v -12.543970 4.860199 11.841052
v -12.543970 2.140092 11.841052
v -12.271527 4.860199 11.841052
v -12.271527 2.140092 11.841052
v -7.723830 4.860200 11.841052
v -7.723830 2.140092 11.841052
v -7.451387 4.559119 11.841052
v -12.543970 4.559119 11.841052
v -12.271527 4.559119 11.841052
v -7.723830 4.559119 11.841052
v -7.451387 2.442471 11.841052
v -12.543970 2.442470 11.841052
v -12.271527 2.442471 11.841052
v -7.723830 2.442471 11.841052
v -7.451387 4.860200 11.978376
v -7.451387 2.140092 11.978376
v -12.543970 4.860199 11.978376
v -12.543970 2.140092 11.978376
v -12.271527 4.860199 11.978376
v -12.271527 2.140092 11.978376
v -7.723830 4.860200 11.978376
v -7.723830 2.140092 11.978376
v -7.451387 4.559119 11.978376
v -12.543970 4.559119 11.978376
v -12.271527 4.559119 11.978376
v -7.723830 4.559119 11.978376
v -7.451387 2.442471 11.978376
v -12.543970 2.442470 11.978376
v -12.271527 2.442471 11.978376
v -7.723830 2.442471 11.978376
v -12.285567 4.549074 11.978376
v -7.751577 4.549074 11.978376
v -12.285567 2.443400 11.978376
v -7.751577 2.443400 11.978376
vn -0.0000 -0.0000 -1.0000
vn -0.0000 -0.0000 1.0000
vn -0.0000 1.0000 -0.0000
vn 1.0000 -0.0000 -0.0000
vn -0.0000 -1.0000 -0.0000
vn -1.0000 -0.0000 -0.0000
vt 0.888836 0.946502
vt 1.000000 0.946502
vt 1.000000 1.000000
vt 0.888836 1.000000
vt 0.888836 0.053498
vt 1.000000 0.053498
vt 0.888836 0.000000
vt 1.000000 0.000000
vt 0.000000 0.000000
vt 0.110687 0.000000
vt 0.110687 0.053498
vt 0.000000 0.053498
vt 0.110687 0.946502
vt 0.000000 0.946502
vt 0.110687 1.000000
vt 0.000000 1.000000
vt 0.057613 0.115002
vt 0.950617 0.115002
vt 0.950617 0.881679
vt 0.057613 0.881679
s 0
usemtl Material
f 83/21/8 74/22/8 72/23/8 82/24/8
f 84/25/8 76/26/8 74/22/8 83/21/8
f 81/27/8 70/28/8 76/26/8 84/25/8
f 69/29/8 77/30/8 80/31/8 75/32/8
f 75/32/8 80/31/8 79/33/8 73/34/8
f 73/34/8 79/33/8 78/35/8 71/36/8
f 77/30/8 81/27/8 84/25/8 80/31/8
f 79/33/8 83/21/8 82/24/8 78/35/8
f 99/21/9 98/24/9 88/23/9 90/22/9
f 100/25/9 99/21/9 90/22/9 92/26/9
f 97/27/9 100/25/9 92/26/9 86/28/9
f 85/29/9 91/32/9 96/31/9 93/30/9
f 91/32/9 89/34/9 95/33/9 96/31/9
f 89/34/9 87/36/9 94/35/9 95/33/9
f 93/30/9 96/31/9 100/25/9 97/27/9
f 95/33/9 94/35/9 98/24/9 99/21/9
f 69/29/10 75/32/10 91/32/10 85/29/10
f 70/28/11 81/27/11 97/27/11 86/28/11
f 72/23/12 74/22/12 90/22/12 88/23/12
f 71/36/13 78/35/13 94/35/13 87/36/13
f 73/34/10 71/36/10 87/36/10 89/34/10
f 74/22/12 76/26/12 92/26/12 90/22/12
f 75/32/10 73/34/10 89/34/10 91/32/10
f 76/26/12 70/28/12 86/28/12 92/26/12
f 77/30/11 69/29/11 85/29/11 93/30/11
f 78/35/13 82/24/13 98/24/13 94/35/13
f 83/21/11 79/33/11 95/33/11 99/21/11
f 80/31/13 84/25/13 100/25/13 96/31/13
f 79/33/12 80/31/12 96/31/12 95/33/12
f 81/27/11 77/30/11 93/30/11 97/27/11
f 82/24/13 72/23/13 88/23/13 98/24/13
f 84/25/10 83/21/10 99/21/10 100/25/10
usemtl board
f 104/37/8 103/38/8 101/39/8 102/40/8
